<?xml version="1.0" standalone="no"?>
<!DOCTYPE svg PUBLIC "-//W3C//DTD SVG 20010904//EN"
 "http://www.w3.org/TR/2001/REC-SVG-20010904/DTD/svg10.dtd">
<svg version="1.0" xmlns="http://www.w3.org/2000/svg"
 width="512.000000pt" height="512.000000pt" viewBox="0 0 512.000000 512.000000"
 preserveAspectRatio="xMidYMid meet">

<g transform="translate(0.000000,512.000000) scale(0.100000,-0.100000)"
fill="#000000" stroke="none">
<path d="M671 5104 c-129 -34 -249 -129 -338 -266 -115 -176 -158 -376 -118
-547 48 -203 219 -378 414 -424 45 -10 58 -18 81 -53 45 -64 144 -150 212
-183 207 -101 434 -78 617 62 41 32 108 108 137 155 1 2 28 10 60 18 281 74
466 351 425 635 -55 371 -356 662 -633 611 -98 -18 -198 -73 -277 -151 l-67
-68 -75 71 c-142 135 -285 181 -438 140z m231 -146 c49 -23 158 -110 158 -127
0 -4 -26 -20 -58 -34 -167 -77 -314 -267 -372 -481 -18 -65 -21 -99 -18 -193
2 -78 0 -113 -8 -113 -20 0 -129 76 -161 113 -105 120 -137 270 -93 441 50
195 206 379 354 417 51 13 141 3 198 -23z m826 -4 c88 -42 180 -142 236 -255
111 -224 95 -420 -46 -575 -47 -51 -137 -114 -164 -114 -8 0 -9 13 -2 48 12
62 3 180 -22 271 -56 199 -203 388 -364 466 l-69 33 45 44 c47 46 131 96 182
109 55 14 143 3 204 -27z m-410 -280 c186 -90 336 -382 303 -592 -68 -439
-653 -523 -845 -122 -29 62 -31 71 -31 185 0 99 4 131 23 185 62 175 194 323
327 367 61 20 155 10 223 -23z"/>
<path d="M3865 5107 c-56 -19 -85 -35 -120 -67 -23 -21 -44 -29 -90 -35 -118
-14 -287 -64 -400 -119 -136 -67 -220 -139 -264 -228 -30 -59 -31 -65 -31
-198 0 -165 19 -253 84 -385 116 -236 341 -409 631 -486 102 -27 323 -37 433
-19 411 66 727 350 798 718 19 98 18 277 -1 331 -61 175 -310 322 -635 377
-88 15 -111 22 -139 47 -73 62 -187 90 -266 64z m143 -139 c28 -16 119 -116
311 -346 149 -177 271 -324 271 -326 0 -8 -155 -68 -233 -92 -246 -74 -596
-71 -862 8 -87 25 -207 78 -203 89 2 5 126 154 276 333 172 204 284 330 305
340 45 22 87 20 135 -6z m-428 -113 c0 -3 -91 -114 -202 -246 l-203 -240 -37
39 c-109 118 -45 253 172 363 86 44 270 101 270 84z m855 -32 c164 -52 307
-148 341 -230 28 -66 8 -148 -49 -201 l-25 -23 -187 223 c-103 123 -197 234
-209 247 l-21 23 35 -6 c19 -4 71 -19 115 -33z m-1195 -653 c36 -18 93 -43
127 -55 58 -20 66 -27 104 -85 81 -125 198 -229 344 -304 79 -40 68 -44 -60
-17 -195 40 -350 124 -473 255 -63 69 -136 186 -157 255 l-7 24 28 -20 c16
-11 58 -35 94 -53z m1090 -115 c0 -3 -9 -23 -20 -44 -62 -123 -234 -169 -335
-89 -21 16 -65 85 -65 101 0 2 66 7 148 11 81 3 165 10 187 15 48 11 85 13 85
6z"/>
<path d="M2465 3684 c-41 -22 -83 -63 -103 -99 -15 -26 -18 -89 -22 -537 -3
-278 -8 -509 -11 -512 -3 -3 -50 -10 -105 -16 -519 -53 -900 -212 -1001 -418
l-28 -57 0 -225 c1 -240 10 -318 52 -453 96 -306 320 -571 623 -736 l75 -41
-948 0 -948 0 -24 -25 -25 -24 0 -249 c0 -247 0 -249 23 -270 l23 -22 2515 0
2516 0 21 23 c21 23 22 30 22 271 l0 247 -25 24 -24 25 -948 0 -948 0 93 53
c130 73 204 129 303 229 139 139 246 313 302 493 42 137 51 215 52 455 0 209
-2 228 -21 271 -81 175 -363 321 -758 393 -109 20 -313 46 -363 46 -11 0 -13
91 -13 498 l0 498 -27 55 c-40 78 -94 113 -181 116 -48 2 -76 -1 -97 -13z
m136 -127 c38 -29 39 -42 39 -591 l0 -536 -84 0 c-47 0 -87 4 -90 9 -3 5 -3
251 1 547 l6 538 23 23 c26 25 78 31 105 10z m-271 -1167 c0 -5 -32 -58 -71
-117 -87 -132 -173 -305 -193 -393 -19 -79 -20 -136 -2 -217 7 -35 9 -63 5
-63 -38 0 -246 49 -341 80 -288 95 -438 225 -398 346 51 154 408 307 837 359
138 16 163 17 163 5z m605 -5 c319 -36 583 -118 740 -230 100 -71 134 -133
114 -208 -21 -78 -147 -174 -314 -238 -83 -33 -305 -92 -387 -103 l-48 -7 10
26 c21 54 23 160 6 237 -21 96 -111 279 -209 426 -55 81 -71 112 -59 112 9 0
76 -7 147 -15z m-323 -197 c44 -173 61 -315 56 -468 -2 -75 -8 -141 -12 -148
-5 -8 -38 -12 -100 -12 -111 0 -103 -12 -112 165 -7 135 9 279 52 443 36 142
32 134 62 130 25 -3 29 -10 54 -110z m-262 -72 c-31 -131 -43 -269 -36 -415
l7 -134 -42 7 c-55 9 -54 8 -74 64 -40 117 -29 214 42 356 35 71 115 207 119
203 1 -1 -6 -38 -16 -81z m510 -106 c58 -114 84 -210 77 -280 -5 -44 -28 -125
-41 -146 -1 -1 -23 -5 -51 -8 l-50 -7 3 158 c4 153 -2 206 -44 438 -5 26 0 22
31 -25 20 -30 54 -89 75 -130z m-1407 -360 c32 -18 102 -50 155 -70 l97 -38
22 -84 c30 -120 72 -221 128 -316 130 -218 357 -410 604 -510 47 -19 87 -36
89 -37 7 -6 -127 7 -216 21 -545 86 -967 517 -999 1018 l-6 99 34 -25 c19 -14
60 -40 92 -58z m3537 -1355 l0 -165 -2430 0 -2430 0 0 165 0 165 2430 0 2430
0 0 -165z"/>
<path d="M270 3353 c-43 -14 -69 -35 -130 -105 -121 -140 -157 -236 -126 -340
55 -189 266 -272 429 -168 92 58 150 193 127 291 -15 62 -75 155 -154 237 -49
52 -111 96 -128 91 -2 0 -10 -3 -18 -6z m80 -200 c28 -32 63 -82 77 -111 24
-49 25 -56 14 -95 -45 -151 -237 -164 -298 -19 -19 45 -11 85 27 145 32 51
108 137 120 137 5 0 31 -26 60 -57z"/>
<path d="M4757 3266 c-191 -71 -239 -323 -87 -459 56 -51 102 -69 176 -69 155
-1 267 112 268 267 1 112 -54 204 -150 250 -50 24 -156 30 -207 11z m179 -147
c55 -50 67 -118 33 -179 -72 -127 -259 -79 -259 67 0 48 26 97 65 124 42 28
124 22 161 -12z"/>
<path d="M985 2906 c-49 -21 -172 -162 -212 -243 -33 -67 -35 -78 -31 -140 8
-112 69 -198 173 -244 210 -94 446 111 385 332 -23 82 -173 269 -237 296 -39
16 -40 16 -78 -1z m108 -203 c74 -92 90 -126 84 -179 -8 -74 -58 -124 -137
-139 -42 -7 -113 26 -143 66 -28 38 -33 108 -12 150 26 50 124 169 139 169 8
0 38 -30 69 -67z"/>
<path d="M3962 2804 c-160 -80 -202 -287 -85 -424 104 -121 303 -120 407 1
121 142 60 375 -113 434 -70 24 -148 20 -209 -11z m198 -130 c61 -52 75 -115
41 -182 -50 -97 -198 -97 -244 1 -48 101 16 207 125 207 36 0 54 -6 78 -26z"/>
<path d="M252 2413 c-47 -26 -165 -166 -203 -240 -51 -100 -42 -194 27 -295
95 -137 323 -148 435 -21 67 77 94 185 66 267 -42 124 -208 306 -279 306 -7 0
-28 -8 -46 -17z m99 -175 c56 -60 99 -130 106 -171 7 -48 -28 -120 -73 -148
-101 -62 -234 13 -234 131 0 38 7 57 41 106 45 65 98 124 111 124 5 0 27 -19
49 -42z"/>
<path d="M4805 2380 c-60 -10 -89 -25 -136 -67 -104 -94 -120 -255 -36 -365
98 -128 286 -145 397 -36 60 57 85 117 84 203 -1 113 -57 202 -154 243 -55 24
-103 31 -155 22z m117 -147 c15 -7 37 -32 49 -55 49 -96 -18 -208 -125 -208
-132 0 -187 181 -79 258 47 33 97 35 155 5z"/>
</g>
</svg>
