<?xml version="1.0" standalone="no"?>
<!DOCTYPE svg PUBLIC "-//W3C//DTD SVG 20010904//EN"
 "http://www.w3.org/TR/2001/REC-SVG-20010904/DTD/svg10.dtd">
<svg version="1.0" xmlns="http://www.w3.org/2000/svg"
 width="512.000000pt" height="512.000000pt" viewBox="0 0 512.000000 512.000000"
 preserveAspectRatio="xMidYMid meet">

<g transform="translate(0.000000,512.000000) scale(0.100000,-0.100000)"
fill="#000000" stroke="none">
<path d="M525 5111 c-11 -5 -29 -19 -40 -31 -20 -22 -20 -36 -20 -2521 l0
-2499 28 -27 27 -28 1848 0 1847 0 67 23 c165 57 288 180 350 352 l23 65 0
2115 0 2115 -26 71 c-61 166 -176 282 -345 346 l-59 23 -1840 2 c-1012 1
-1849 -2 -1860 -6z m3646 -201 c116 -22 200 -88 252 -198 l32 -67 0 -2085 0
-2085 -32 -67 c-52 -110 -136 -176 -252 -198 -35 -6 -555 -10 -1472 -10
l-1419 0 0 213 c0 241 -6 264 -75 287 l-36 12 3 96 c3 91 4 97 25 100 12 2 33
14 46 28 54 54 38 133 -34 163 l-39 16 0 93 c0 79 2 93 18 98 44 14 66 31 79
61 11 27 13 340 13 1793 l0 1760 1419 0 c917 0 1437 -4 1472 -10z"/>
<path d="M2795 4400 c-70 -10 -145 -36 -212 -76 -57 -33 -146 -115 -173 -159
l-20 -32 -97 5 c-123 6 -191 -8 -293 -59 -278 -140 -387 -473 -244 -755 57
-115 173 -221 289 -266 l40 -16 5 -353 c4 -258 8 -360 18 -376 31 -55 -2 -53
754 -53 519 0 704 3 723 12 53 24 55 38 55 415 l0 348 81 38 c147 69 262 208
304 367 19 70 19 210 0 280 -53 200 -222 364 -424 410 -33 8 -92 11 -152 8
l-99 -5 -20 31 c-33 53 -122 133 -190 169 -110 60 -228 82 -345 67z m243 -239
c71 -39 120 -89 157 -160 46 -92 80 -107 181 -76 229 69 464 -106 464 -345 0
-161 -108 -305 -260 -346 -77 -21 -116 -42 -129 -70 -7 -17 -11 -136 -11 -364
l0 -340 -575 0 -575 0 0 349 c0 403 3 389 -92 411 -118 28 -218 102 -266 196
-66 129 -43 295 54 403 92 103 239 144 370 106 110 -32 140 -20 191 77 38 72
90 125 158 160 64 34 85 38 180 35 80 -3 97 -7 153 -36z"/>
<path d="M2115 1628 c-62 -34 -74 -108 -24 -157 l31 -31 248 0 248 0 31 31
c48 47 38 125 -20 155 -35 18 -482 20 -514 2z"/>
<path d="M2944 1631 c-65 -28 -84 -113 -35 -162 91 -91 230 36 144 131 -30 32
-75 45 -109 31z"/>
<path d="M3331 1626 c-63 -35 -67 -120 -7 -168 17 -14 42 -18 138 -18 129 0
162 9 184 51 23 45 17 78 -20 115 l-34 34 -118 0 c-80 -1 -127 -5 -143 -14z"/>
<path d="M2115 1228 c-62 -34 -74 -108 -24 -157 l31 -31 728 0 c544 0 736 3
755 12 15 7 33 24 41 39 23 45 17 78 -20 115 l-34 34 -728 0 c-511 -1 -735 -4
-749 -12z"/>
<path d="M2115 828 c-62 -34 -74 -108 -24 -157 l31 -31 728 0 c544 0 736 3
755 12 15 7 33 24 41 39 23 45 17 78 -20 115 l-34 34 -728 0 c-511 -1 -735 -4
-749 -12z"/>
</g>
</svg>
